<?xml version="1.0" encoding="UTF-8" standalone="no"?>
<!DOCTYPE svg PUBLIC "-//W3C//DTD SVG 1.1//EN"
 "http://www.w3.org/Graphics/SVG/1.1/DTD/svg11.dtd">
<!-- Generated by graphviz version 2.43.0 (0)
 -->
<!-- Title: G Pages: 1 -->
<svg width="744pt" height="1373pt"
 viewBox="0.00 0.00 744.00 1373.00" xmlns="http://www.w3.org/2000/svg" xmlns:xlink="http://www.w3.org/1999/xlink">
<g id="graph0" class="graph" transform="scale(1 1) rotate(0) translate(4 1369)">
<title>G</title>
<polygon fill="white" stroke="transparent" points="-4,4 -4,-1369 740,-1369 740,4 -4,4"/>
<text text-anchor="middle" x="368" y="-6.8" font-family="Times,serif" font-size="14.00">as2cfg &#45; Generated By hidva/as2cfg</text>
<!-- 0 -->
<g id="node1" class="node">
<title>0</title>
<polygon fill="none" stroke="black" points="243,-1365 0,-1365 0,-1295 243,-1295 243,-1365"/>
<text text-anchor="start" x="12.39" y="-1345.8" font-family="Times,serif" font-size="14.00">0x4004c0</text>
<text text-anchor="start" x="73.17" y="-1345.8" font-family="Times,serif" font-size="14.00">movsx edx,BYTE PTR [rdi]</text>
<text text-anchor="start" x="12.39" y="-1325.8" font-family="Times,serif" font-size="14.00">0x4004c3</text>
<text text-anchor="start" x="73.5" y="-1325.8" font-family="Times,serif" font-size="14.00">cmp dl,0x9</text>
<text text-anchor="start" x="12.39" y="-1305.8" font-family="Times,serif" font-size="14.00">0x4004c6</text>
<text text-anchor="start" x="73.5" y="-1305.8" font-family="Times,serif" font-size="14.00">je 0x4004d0</text>
</g>
<!-- 1 -->
<g id="node2" class="node">
<title>1</title>
<polygon fill="none" stroke="black" points="268.5,-1072 24.5,-1072 24.5,-982 268.5,-982 268.5,-1072"/>
<text text-anchor="start" x="36.5" y="-1052.8" font-family="Times,serif" font-size="14.00">0x4004d0</text>
<text text-anchor="start" x="98.5" y="-1052.8" font-family="Times,serif" font-size="14.00">add rdi,0x1</text>
<text text-anchor="start" x="36.5" y="-1032.8" font-family="Times,serif" font-size="14.00">0x4004d4</text>
<text text-anchor="start" x="98.17" y="-1032.8" font-family="Times,serif" font-size="14.00">movsx edx,BYTE PTR [rdi]</text>
<text text-anchor="start" x="36.5" y="-1012.8" font-family="Times,serif" font-size="14.00">0x4004d7</text>
<text text-anchor="start" x="98.5" y="-1012.8" font-family="Times,serif" font-size="14.00">cmp dl,0x20</text>
<text text-anchor="start" x="36.5" y="-992.8" font-family="Times,serif" font-size="14.00">0x4004da</text>
<text text-anchor="start" x="98.5" y="-992.8" font-family="Times,serif" font-size="14.00">je 0x4004d0</text>
</g>
<!-- 0&#45;&gt;1 -->
<g id="edge1" class="edge">
<title>0&#45;&gt;1</title>
<path fill="none" stroke="blue" stroke-dasharray="5,2" d="M119.33,-1294.88C117.16,-1251.46 115.34,-1174.25 124.5,-1109 125.74,-1100.19 127.63,-1090.98 129.81,-1082.06"/>
<polygon fill="blue" stroke="blue" points="133.25,-1082.7 132.36,-1072.14 126.47,-1080.96 133.25,-1082.7"/>
<text text-anchor="middle" x="146.84" y="-1165.8" font-family="Times,serif" font-size="14.00">dl == 0x9</text>
</g>
<!-- 2 -->
<g id="node3" class="node">
<title>2</title>
<polygon fill="none" stroke="black" points="324.5,-1245 164.5,-1245 164.5,-1195 324.5,-1195 324.5,-1245"/>
<text text-anchor="start" x="176.39" y="-1225.8" font-family="Times,serif" font-size="14.00">0x4004c8</text>
<text text-anchor="start" x="237.5" y="-1225.8" font-family="Times,serif" font-size="14.00">cmp dl,0x20</text>
<text text-anchor="start" x="176.39" y="-1205.8" font-family="Times,serif" font-size="14.00">0x4004cb</text>
<text text-anchor="start" x="237.09" y="-1205.8" font-family="Times,serif" font-size="14.00">jne 0x4004e1</text>
</g>
<!-- 0&#45;&gt;2 -->
<g id="edge2" class="edge">
<title>0&#45;&gt;2</title>
<path fill="none" stroke="green" stroke-dasharray="5,2" d="M160.42,-1294.83C176.12,-1281.04 194.1,-1265.25 209.4,-1251.82"/>
<polygon fill="green" stroke="green" points="211.92,-1254.26 217.13,-1245.04 207.3,-1249 211.92,-1254.26"/>
<text text-anchor="middle" x="220.22" y="-1265.8" font-family="Times,serif" font-size="14.00">dl != 0x9</text>
</g>
<!-- 1&#45;&gt;1 -->
<g id="edge6" class="edge">
<title>1&#45;&gt;1</title>
<path fill="none" stroke="blue" stroke-dasharray="5,2" d="M268.9,-1036.16C279.72,-1034.23 286.5,-1031.18 286.5,-1027 286.5,-1024.32 283.72,-1022.11 278.87,-1020.36"/>
<polygon fill="blue" stroke="blue" points="279.45,-1016.89 268.9,-1017.84 277.74,-1023.68 279.45,-1016.89"/>
<text text-anchor="middle" x="317.34" y="-1022.8" font-family="Times,serif" font-size="14.00">dl == 0x20</text>
</g>
<!-- 5 -->
<g id="node6" class="node">
<title>5</title>
<polygon fill="none" stroke="black" points="304.5,-932 150.5,-932 150.5,-882 304.5,-882 304.5,-932"/>
<text text-anchor="start" x="162.39" y="-912.8" font-family="Times,serif" font-size="14.00">0x4004dc</text>
<text text-anchor="start" x="223.5" y="-912.8" font-family="Times,serif" font-size="14.00">cmp dl,0x9</text>
<text text-anchor="start" x="162.5" y="-892.8" font-family="Times,serif" font-size="14.00">0x4004df</text>
<text text-anchor="start" x="223.2" y="-892.8" font-family="Times,serif" font-size="14.00">je 0x4004d0</text>
</g>
<!-- 1&#45;&gt;5 -->
<g id="edge7" class="edge">
<title>1&#45;&gt;5</title>
<path fill="none" stroke="green" stroke-dasharray="5,2" d="M139.09,-981.99C139.23,-970.89 141.27,-959.46 147.05,-950 149.59,-945.85 152.68,-942.09 156.16,-938.68"/>
<polygon fill="green" stroke="green" points="158.45,-941.33 163.8,-932.19 153.92,-936 158.45,-941.33"/>
<text text-anchor="middle" x="176.72" y="-952.8" font-family="Times,serif" font-size="14.00">dl != 0x20</text>
</g>
<!-- 3 -->
<g id="node4" class="node">
<title>3</title>
<polygon fill="none" stroke="black" points="382.5,-832 228.5,-832 228.5,-782 382.5,-782 382.5,-832"/>
<text text-anchor="start" x="240.39" y="-812.8" font-family="Times,serif" font-size="14.00">0x4004e1</text>
<text text-anchor="start" x="301" y="-812.8" font-family="Times,serif" font-size="14.00">cmp dl,0x2d</text>
<text text-anchor="start" x="240.39" y="-792.8" font-family="Times,serif" font-size="14.00">0x4004e4</text>
<text text-anchor="start" x="301.2" y="-792.8" font-family="Times,serif" font-size="14.00">je 0x400530</text>
</g>
<!-- 2&#45;&gt;3 -->
<g id="edge3" class="edge">
<title>2&#45;&gt;3</title>
<path fill="none" stroke="blue" stroke-dasharray="5,2" d="M324.55,-1196.78C355.45,-1182.9 383.5,-1161.17 383.5,-1128 383.5,-1128 383.5,-1128 383.5,-906 383.5,-879.74 366.15,-856.45 347.81,-839.17"/>
<polygon fill="blue" stroke="blue" points="349.73,-836.19 339.94,-832.14 345.07,-841.41 349.73,-836.19"/>
<text text-anchor="middle" x="412.72" y="-1022.8" font-family="Times,serif" font-size="14.00">dl != 0x20</text>
</g>
<!-- 4 -->
<g id="node5" class="node">
<title>4</title>
<polygon fill="none" stroke="black" points="355.5,-1145 133.5,-1145 133.5,-1109 355.5,-1109 355.5,-1145"/>
<text text-anchor="start" x="145.39" y="-1122.8" font-family="Times,serif" font-size="14.00">0x4004cd</text>
<text text-anchor="start" x="206.37" y="-1122.8" font-family="Times,serif" font-size="14.00">nop DWORD PTR [rax]</text>
</g>
<!-- 2&#45;&gt;4 -->
<g id="edge4" class="edge">
<title>2&#45;&gt;4</title>
<path fill="none" stroke="green" stroke-dasharray="5,2" d="M244.5,-1194.61C244.5,-1182.56 244.5,-1167.97 244.5,-1155.52"/>
<polygon fill="green" stroke="green" points="248,-1155.24 244.5,-1145.24 241,-1155.24 248,-1155.24"/>
<text text-anchor="middle" x="275.34" y="-1165.8" font-family="Times,serif" font-size="14.00">dl == 0x20</text>
</g>
<!-- 6 -->
<g id="node7" class="node">
<title>6</title>
<polygon fill="none" stroke="black" points="736,-732 463,-732 463,-642 736,-642 736,-732"/>
<text text-anchor="start" x="475.5" y="-712.8" font-family="Times,serif" font-size="14.00">0x400530</text>
<text text-anchor="start" x="537.22" y="-712.8" font-family="Times,serif" font-size="14.00">movsx edx,BYTE PTR [rdi+0x1]</text>
<text text-anchor="start" x="475.5" y="-692.8" font-family="Times,serif" font-size="14.00">0x400534</text>
<text text-anchor="start" x="537.5" y="-692.8" font-family="Times,serif" font-size="14.00">mov esi,0xffffffff</text>
<text text-anchor="start" x="475.5" y="-672.8" font-family="Times,serif" font-size="14.00">0x400539</text>
<text text-anchor="start" x="537.5" y="-672.8" font-family="Times,serif" font-size="14.00">add rdi,0x1</text>
<text text-anchor="start" x="475.5" y="-652.8" font-family="Times,serif" font-size="14.00">0x40053d</text>
<text text-anchor="start" x="537.5" y="-652.8" font-family="Times,serif" font-size="14.00">jmp 0x4004f0</text>
</g>
<!-- 3&#45;&gt;6 -->
<g id="edge10" class="edge">
<title>3&#45;&gt;6</title>
<path fill="none" stroke="blue" stroke-dasharray="5,2" d="M365.35,-781.98C398.46,-768.69 440.79,-751.7 480.34,-735.83"/>
<polygon fill="blue" stroke="blue" points="481.82,-739.01 489.79,-732.03 479.21,-732.51 481.82,-739.01"/>
<text text-anchor="middle" x="474.34" y="-752.8" font-family="Times,serif" font-size="14.00">dl == 0x2d</text>
</g>
<!-- 7 -->
<g id="node8" class="node">
<title>7</title>
<polygon fill="none" stroke="black" points="163.5,-722 9.5,-722 9.5,-652 163.5,-652 163.5,-722"/>
<text text-anchor="start" x="21.39" y="-702.8" font-family="Times,serif" font-size="14.00">0x4004e6</text>
<text text-anchor="start" x="82.5" y="-702.8" font-family="Times,serif" font-size="14.00">mov esi,0x1</text>
<text text-anchor="start" x="21.39" y="-682.8" font-family="Times,serif" font-size="14.00">0x4004eb</text>
<text text-anchor="start" x="82" y="-682.8" font-family="Times,serif" font-size="14.00">cmp dl,0x2b</text>
<text text-anchor="start" x="21.5" y="-662.8" font-family="Times,serif" font-size="14.00">0x4004ee</text>
<text text-anchor="start" x="82.2" y="-662.8" font-family="Times,serif" font-size="14.00">je 0x400520</text>
</g>
<!-- 3&#45;&gt;7 -->
<g id="edge11" class="edge">
<title>3&#45;&gt;7</title>
<path fill="none" stroke="green" stroke-dasharray="5,2" d="M260.92,-781.98C231.53,-766.14 192.37,-745.05 158.61,-726.85"/>
<polygon fill="green" stroke="green" points="160.16,-723.71 149.7,-722.05 156.84,-729.88 160.16,-723.71"/>
<text text-anchor="middle" x="251.72" y="-752.8" font-family="Times,serif" font-size="14.00">dl != 0x2d</text>
</g>
<!-- 4&#45;&gt;1 -->
<g id="edge5" class="edge">
<title>4&#45;&gt;1</title>
<path fill="none" stroke="black" stroke-width="2" d="M227.43,-1108.93C219.14,-1100.64 208.7,-1090.2 198.09,-1079.59"/>
<polygon fill="black" stroke="black" stroke-width="2" points="200.29,-1076.84 190.74,-1072.24 195.34,-1081.79 200.29,-1076.84"/>
</g>
<!-- 5&#45;&gt;1 -->
<g id="edge8" class="edge">
<title>5&#45;&gt;1</title>
<path fill="none" stroke="blue" stroke-dasharray="5,2" d="M220.32,-932.14C216.7,-942.4 211.73,-954.22 205.5,-964 203.36,-967.36 201.02,-970.69 198.55,-973.97"/>
<polygon fill="blue" stroke="blue" points="195.66,-971.98 192.17,-981.99 201.13,-976.34 195.66,-971.98"/>
<text text-anchor="middle" x="240.84" y="-952.8" font-family="Times,serif" font-size="14.00">dl == 0x9</text>
</g>
<!-- 5&#45;&gt;3 -->
<g id="edge9" class="edge">
<title>5&#45;&gt;3</title>
<path fill="none" stroke="green" stroke-dasharray="5,2" d="M246.78,-881.78C256.72,-869.29 268.97,-853.89 279.71,-840.4"/>
<polygon fill="green" stroke="green" points="282.68,-842.29 286.17,-832.29 277.2,-837.93 282.68,-842.29"/>
<text text-anchor="middle" x="296.22" y="-852.8" font-family="Times,serif" font-size="14.00">dl != 0x9</text>
</g>
<!-- 9 -->
<g id="node10" class="node">
<title>9</title>
<polygon fill="none" stroke="black" points="433.5,-485 185.5,-485 185.5,-395 433.5,-395 433.5,-485"/>
<text text-anchor="start" x="197.17" y="-465.8" font-family="Times,serif" font-size="14.00">0x4004f0</text>
<text text-anchor="start" x="256.27" y="-465.8" font-family="Times,serif" font-size="14.00">lea ecx,[rdx&#45;0xffffffffffffffd0]</text>
<text text-anchor="start" x="197.17" y="-445.8" font-family="Times,serif" font-size="14.00">0x4004f3</text>
<text text-anchor="start" x="256.5" y="-445.8" font-family="Times,serif" font-size="14.00">xor eax,eax</text>
<text text-anchor="start" x="197.17" y="-425.8" font-family="Times,serif" font-size="14.00">0x4004f5</text>
<text text-anchor="start" x="256.5" y="-425.8" font-family="Times,serif" font-size="14.00">cmp cl,0x9</text>
<text text-anchor="start" x="197.17" y="-405.8" font-family="Times,serif" font-size="14.00">0x4004f8</text>
<text text-anchor="start" x="256.5" y="-405.8" font-family="Times,serif" font-size="14.00">ja 0x40051a</text>
</g>
<!-- 6&#45;&gt;9 -->
<g id="edge22" class="edge">
<title>6&#45;&gt;9</title>
<path fill="none" stroke="black" stroke-width="2" d="M567.55,-641.85C540.47,-606.51 499.16,-557.19 455.5,-522 441.41,-510.64 425.51,-500.01 409.51,-490.42"/>
<polygon fill="black" stroke="black" stroke-width="2" points="411.03,-487.25 400.63,-485.2 407.48,-493.28 411.03,-487.25"/>
</g>
<!-- 8 -->
<g id="node9" class="node">
<title>8</title>
<polygon fill="none" stroke="black" points="446,-592 173,-592 173,-522 446,-522 446,-592"/>
<text text-anchor="start" x="185.5" y="-572.8" font-family="Times,serif" font-size="14.00">0x400520</text>
<text text-anchor="start" x="247.22" y="-572.8" font-family="Times,serif" font-size="14.00">movsx edx,BYTE PTR [rdi+0x1]</text>
<text text-anchor="start" x="185.5" y="-552.8" font-family="Times,serif" font-size="14.00">0x400524</text>
<text text-anchor="start" x="247.5" y="-552.8" font-family="Times,serif" font-size="14.00">add rdi,0x1</text>
<text text-anchor="start" x="185.5" y="-532.8" font-family="Times,serif" font-size="14.00">0x400528</text>
<text text-anchor="start" x="247.5" y="-532.8" font-family="Times,serif" font-size="14.00">jmp 0x4004f0</text>
</g>
<!-- 7&#45;&gt;8 -->
<g id="edge12" class="edge">
<title>7&#45;&gt;8</title>
<path fill="none" stroke="blue" stroke-dasharray="5,2" d="M145.97,-651.87C175.33,-635.02 210.89,-614.6 241.34,-597.12"/>
<polygon fill="blue" stroke="blue" points="243.27,-600.05 250.2,-592.04 239.78,-593.98 243.27,-600.05"/>
<text text-anchor="middle" x="249.34" y="-612.8" font-family="Times,serif" font-size="14.00">dl == 0x2b</text>
</g>
<!-- 7&#45;&gt;9 -->
<g id="edge13" class="edge">
<title>7&#45;&gt;9</title>
<path fill="none" stroke="green" stroke-dasharray="5,2" d="M80.87,-651.81C76.91,-615.78 76.58,-559.21 105.05,-522 123.03,-498.5 148.86,-481.81 176.13,-469.95"/>
<polygon fill="green" stroke="green" points="177.52,-473.17 185.43,-466.12 174.85,-466.7 177.52,-473.17"/>
<text text-anchor="middle" x="134.72" y="-552.8" font-family="Times,serif" font-size="14.00">dl != 0x2b</text>
</g>
<!-- 8&#45;&gt;9 -->
<g id="edge20" class="edge">
<title>8&#45;&gt;9</title>
<path fill="none" stroke="black" stroke-width="2" d="M309.5,-521.81C309.5,-513.44 309.5,-504.27 309.5,-495.22"/>
<polygon fill="black" stroke="black" stroke-width="2" points="313,-495.09 309.5,-485.09 306,-495.09 313,-495.09"/>
</g>
<!-- 10 -->
<g id="node11" class="node">
<title>10</title>
<polygon fill="none" stroke="black" points="327,-345 224,-345 224,-309 327,-309 327,-345"/>
<text text-anchor="start" x="236.39" y="-322.8" font-family="Times,serif" font-size="14.00">0x40051a</text>
<text text-anchor="start" x="297.37" y="-322.8" font-family="Times,serif" font-size="14.00">ret </text>
</g>
<!-- 9&#45;&gt;10 -->
<g id="edge14" class="edge">
<title>9&#45;&gt;10</title>
<path fill="none" stroke="blue" stroke-dasharray="5,2" d="M295.96,-394.81C291.84,-381.34 287.43,-366.95 283.76,-354.98"/>
<polygon fill="blue" stroke="blue" points="287.04,-353.71 280.76,-345.18 280.34,-355.76 287.04,-353.71"/>
<text text-anchor="middle" x="312.5" y="-365.8" font-family="Times,serif" font-size="14.00">cl &gt; 0x9</text>
</g>
<!-- 11 -->
<g id="node12" class="node">
<title>11</title>
<polygon fill="none" stroke="black" points="593.5,-345 345.5,-345 345.5,-309 593.5,-309 593.5,-345"/>
<text text-anchor="start" x="357.06" y="-322.8" font-family="Times,serif" font-size="14.00">0x4004fa</text>
<text text-anchor="start" x="415.16" y="-322.8" font-family="Times,serif" font-size="14.00">nop WORD PTR [rax+rax*1]</text>
</g>
<!-- 9&#45;&gt;11 -->
<g id="edge15" class="edge">
<title>9&#45;&gt;11</title>
<path fill="none" stroke="green" stroke-dasharray="5,2" d="M373.2,-394.81C394.76,-379.85 417.98,-363.74 436.22,-351.09"/>
<polygon fill="green" stroke="green" points="438.52,-353.75 444.74,-345.18 434.53,-348 438.52,-353.75"/>
<text text-anchor="middle" x="444.45" y="-365.8" font-family="Times,serif" font-size="14.00">cl &lt;= 0x9</text>
</g>
<!-- 12 -->
<g id="node13" class="node">
<title>12</title>
<polygon fill="none" stroke="black" points="615,-272 324,-272 324,-122 615,-122 615,-272"/>
<text text-anchor="start" x="336.5" y="-252.8" font-family="Times,serif" font-size="14.00">0x400500</text>
<text text-anchor="start" x="398.5" y="-252.8" font-family="Times,serif" font-size="14.00">lea ecx,[rax+rax*4]</text>
<text text-anchor="start" x="336.5" y="-232.8" font-family="Times,serif" font-size="14.00">0x400503</text>
<text text-anchor="start" x="398.5" y="-232.8" font-family="Times,serif" font-size="14.00">add rdi,0x1</text>
<text text-anchor="start" x="336.5" y="-212.8" font-family="Times,serif" font-size="14.00">0x400507</text>
<text text-anchor="start" x="398.38" y="-212.8" font-family="Times,serif" font-size="14.00">lea eax,[rdx+rcx*2&#45;0xffffffffffffffd0]</text>
<text text-anchor="start" x="336.5" y="-192.8" font-family="Times,serif" font-size="14.00">0x40050b</text>
<text text-anchor="start" x="398.5" y="-192.8" font-family="Times,serif" font-size="14.00">movsx edx,BYTE PTR [rdi]</text>
<text text-anchor="start" x="336.5" y="-172.8" font-family="Times,serif" font-size="14.00">0x40050e</text>
<text text-anchor="start" x="398.5" y="-172.8" font-family="Times,serif" font-size="14.00">lea ecx,[rdx&#45;0xffffffffffffffd0]</text>
<text text-anchor="start" x="336.5" y="-152.8" font-family="Times,serif" font-size="14.00">0x400511</text>
<text text-anchor="start" x="398.5" y="-152.8" font-family="Times,serif" font-size="14.00">cmp cl,0x9</text>
<text text-anchor="start" x="336.5" y="-132.8" font-family="Times,serif" font-size="14.00">0x400514</text>
<text text-anchor="start" x="398.5" y="-132.8" font-family="Times,serif" font-size="14.00">jbe 0x400500</text>
</g>
<!-- 11&#45;&gt;12 -->
<g id="edge16" class="edge">
<title>11&#45;&gt;12</title>
<path fill="none" stroke="black" stroke-width="2" d="M469.5,-308.74C469.5,-301.37 469.5,-292.18 469.5,-282.27"/>
<polygon fill="black" stroke="black" stroke-width="2" points="473,-282.16 469.5,-272.16 466,-282.16 473,-282.16"/>
</g>
<!-- 12&#45;&gt;12 -->
<g id="edge17" class="edge">
<title>12&#45;&gt;12</title>
<path fill="none" stroke="blue" stroke-dasharray="5,2" d="M615.12,-209.94C626.19,-207.06 633,-202.75 633,-197 633,-193.23 630.07,-190.07 624.92,-187.54"/>
<polygon fill="blue" stroke="blue" points="625.71,-184.1 615.12,-184.06 623.37,-190.7 625.71,-184.1"/>
<text text-anchor="middle" x="659.95" y="-192.8" font-family="Times,serif" font-size="14.00">cl &lt;= 0x9</text>
</g>
<!-- 13 -->
<g id="node14" class="node">
<title>13</title>
<polygon fill="none" stroke="black" points="546,-72 393,-72 393,-22 546,-22 546,-72"/>
<text text-anchor="start" x="405.5" y="-52.8" font-family="Times,serif" font-size="14.00">0x400516</text>
<text text-anchor="start" x="467.18" y="-52.8" font-family="Times,serif" font-size="14.00">imul eax,esi</text>
<text text-anchor="start" x="405.5" y="-32.8" font-family="Times,serif" font-size="14.00">0x400519</text>
<text text-anchor="start" x="467.5" y="-32.8" font-family="Times,serif" font-size="14.00">ret </text>
</g>
<!-- 12&#45;&gt;13 -->
<g id="edge18" class="edge">
<title>12&#45;&gt;13</title>
<path fill="none" stroke="green" stroke-dasharray="5,2" d="M469.5,-121.57C469.5,-107.9 469.5,-94.25 469.5,-82.49"/>
<polygon fill="green" stroke="green" points="473,-82.27 469.5,-72.27 466,-82.27 473,-82.27"/>
<text text-anchor="middle" x="492.5" y="-92.8" font-family="Times,serif" font-size="14.00">cl &gt; 0x9</text>
</g>
<!-- 14 -->
<g id="node15" class="node">
<title>14</title>
<polygon fill="none" stroke="black" points="445,-705 182,-705 182,-669 445,-669 445,-705"/>
<text text-anchor="start" x="194.5" y="-682.8" font-family="Times,serif" font-size="14.00">0x40051b</text>
<text text-anchor="start" x="256.48" y="-682.8" font-family="Times,serif" font-size="14.00">nop DWORD PTR [rax+rax*1]</text>
</g>
<!-- 14&#45;&gt;8 -->
<g id="edge19" class="edge">
<title>14&#45;&gt;8</title>
<path fill="none" stroke="black" stroke-width="2" d="M312.96,-668.74C312.43,-651.75 311.6,-625.12 310.88,-602.22"/>
<polygon fill="black" stroke="black" stroke-width="2" points="314.37,-601.9 310.56,-592.01 307.38,-602.12 314.37,-601.9"/>
</g>
<!-- 15 -->
<g id="node16" class="node">
<title>15</title>
<polygon fill="none" stroke="black" points="725,-825 474,-825 474,-789 725,-789 725,-825"/>
<text text-anchor="start" x="486.39" y="-802.8" font-family="Times,serif" font-size="14.00">0x40052a</text>
<text text-anchor="start" x="547.16" y="-802.8" font-family="Times,serif" font-size="14.00">nop WORD PTR [rax+rax*1]</text>
</g>
<!-- 15&#45;&gt;6 -->
<g id="edge21" class="edge">
<title>15&#45;&gt;6</title>
<path fill="none" stroke="black" stroke-width="2" d="M599.5,-788.84C599.5,-776.56 599.5,-759.3 599.5,-742.52"/>
<polygon fill="black" stroke="black" stroke-width="2" points="603,-742.19 599.5,-732.19 596,-742.19 603,-742.19"/>
</g>
</g>
</svg>
