<?xml version="1.0" encoding="UTF-8" standalone="no"?><!DOCTYPE svg PUBLIC "-//W3C//DTD SVG 1.1//EN" "http://www.w3.org/Graphics/SVG/1.1/DTD/svg11.dtd"><!-- Generated by graphviz version 2.40.1 (20161225.0304)
 --><!-- Title: G Pages: 1 --><svg xmlns="http://www.w3.org/2000/svg" xmlns:xlink="http://www.w3.org/1999/xlink" width="410pt" height="1024pt" viewBox="0.00 0.00 410.04 1024.20">
<g id="graph0" class="graph" transform="scale(1 1) rotate(0) translate(4 1020.2)">
<title>G</title>
<polygon fill="#ffffff" stroke="transparent" points="-4,4 -4,-1020.2 406.0352,-1020.2 406.0352,4 -4,4"/>
<!-- 0 -->
<g id="node1" class="node">
<title>0</title>
<polygon fill="none" stroke="#000000" points="188.097,-1016.4014 22.28,-1016.4014 22.28,-957.5986 188.097,-957.5986 188.097,-1016.4014"/>
<text text-anchor="middle" x="105.1885" y="-999.6" font-family="Times,serif" font-size="14.00" fill="#000000">edx_1 = movzx([rdi_0]_0)</text>
<text text-anchor="middle" x="105.1885" y="-982.8" font-family="Times,serif" font-size="14.00" fill="#000000"> = cmp(dl_1,0x9)</text>
<text text-anchor="middle" x="105.1885" y="-966" font-family="Times,serif" font-size="14.00" fill="#000000"> = je(0x400590)</text>
</g>
<!-- 1 -->
<g id="node2" class="node">
<title>1</title>
<polygon fill="none" stroke="#000000" points="172.097,-810.7003 6.28,-810.7003 6.28,-735.2997 172.097,-735.2997 172.097,-810.7003"/>
<text text-anchor="middle" x="89.1885" y="-794" font-family="Times,serif" font-size="14.00" fill="#000000">rdi_1 = add(rdi_0,0x1)</text>
<text text-anchor="middle" x="89.1885" y="-777.2" font-family="Times,serif" font-size="14.00" fill="#000000">edx_1 = movzx([rdi_1]_0)</text>
<text text-anchor="middle" x="89.1885" y="-760.4" font-family="Times,serif" font-size="14.00" fill="#000000"> = cmp(dl_1,0x20)</text>
<text text-anchor="middle" x="89.1885" y="-743.6" font-family="Times,serif" font-size="14.00" fill="#000000"> = je(0x400590)</text>
</g>
<!-- 0&#45;&gt;1 -->
<g id="edge1" class="edge">
<title>0-&gt;1</title>
<path fill="none" stroke="#000000" d="M102.7315,-957.7838C101.4347,-942.1319 99.8406,-922.5179 98.5087,-905 96.3885,-877.1149 94.1773,-845.9032 92.4411,-820.8333"/>
<polygon fill="#000000" stroke="#000000" points="95.9321,-820.581 91.7519,-810.8456 88.9487,-821.0629 95.9321,-820.581"/>
<text text-anchor="middle" x="133.5284" y="-880" font-family="Times,serif" font-size="14.00" fill="#000000">dl_1 == 0x9</text>
</g>
<!-- 2 -->
<g id="node3" class="node">
<title>2</title>
<polygon fill="none" stroke="#000000" points="296.4004,-904.8019 175.9766,-904.8019 175.9766,-863.5981 296.4004,-863.5981 296.4004,-904.8019"/>
<text text-anchor="middle" x="236.1885" y="-888.4" font-family="Times,serif" font-size="14.00" fill="#000000"> = cmp(dl_0,0x20)</text>
<text text-anchor="middle" x="236.1885" y="-871.6" font-family="Times,serif" font-size="14.00" fill="#000000"> = jne(0x4005a1)</text>
</g>
<!-- 0&#45;&gt;2 -->
<g id="edge2" class="edge">
<title>0-&gt;2</title>
<path fill="none" stroke="#000000" d="M142.7278,-957.5416C161.3482,-942.9297 183.6798,-925.4053 201.8441,-911.1512"/>
<polygon fill="#000000" stroke="#000000" points="204.162,-913.7813 209.8682,-904.8544 199.8406,-908.2744 204.162,-913.7813"/>
<text text-anchor="middle" x="219.9114" y="-927.2" font-family="Times,serif" font-size="14.00" fill="#000000">dl_1 != 0x9</text>
</g>
<!-- 1&#45;&gt;1 -->
<g id="edge3" class="edge">
<title>1-&gt;1</title>
<path fill="none" stroke="#000000" d="M172.153,-783.5168C182.8353,-781.6931 189.8925,-778.1875 189.8925,-773 189.8925,-769.6768 186.9962,-767.0438 182.106,-765.101"/>
<polygon fill="#000000" stroke="#000000" points="182.7144,-761.6421 172.153,-762.4832 180.9338,-768.4118 182.7144,-761.6421"/>
<text text-anchor="middle" x="227.7324" y="-768.8" font-family="Times,serif" font-size="14.00" fill="#000000">dl_1 == 0x20</text>
</g>
<!-- 4 -->
<g id="node4" class="node">
<title>4</title>
<polygon fill="none" stroke="#000000" points="240.9005,-682.4019 127.4765,-682.4019 127.4765,-641.1981 240.9005,-641.1981 240.9005,-682.4019"/>
<text text-anchor="middle" x="184.1885" y="-666" font-family="Times,serif" font-size="14.00" fill="#000000"> = cmp(dl_0,0x9)</text>
<text text-anchor="middle" x="184.1885" y="-649.2" font-family="Times,serif" font-size="14.00" fill="#000000"> = je(0x400590)</text>
</g>
<!-- 1&#45;&gt;4 -->
<g id="edge4" class="edge">
<title>1-&gt;4</title>
<path fill="none" stroke="#000000" d="M81.6491,-735.224C81.2186,-723.2785 82.9858,-710.5978 89.7427,-700.6 96.7134,-690.2859 106.967,-682.7107 118.1777,-677.148"/>
<polygon fill="#000000" stroke="#000000" points="119.597,-680.3474 127.3293,-673.1044 116.7678,-673.9446 119.597,-680.3474"/>
<text text-anchor="middle" x="126.4114" y="-704.8" font-family="Times,serif" font-size="14.00" fill="#000000">dl_1 != 0x20</text>
</g>
<!-- 2&#45;&gt;1 -->
<g id="edge6" class="edge">
<title>2-&gt;1</title>
<path fill="none" stroke="#000000" d="M208.8834,-863.5447C191.5081,-850.401 168.3407,-832.8757 147.0185,-816.7462"/>
<polygon fill="#000000" stroke="#000000" points="149.0395,-813.8865 138.9528,-810.6448 144.8165,-819.4691 149.0395,-813.8865"/>
<text text-anchor="middle" x="223.0284" y="-832.8" font-family="Times,serif" font-size="14.00" fill="#000000">dl_0 == 0x20</text>
</g>
<!-- 3 -->
<g id="node5" class="node">
<title>3</title>
<polygon fill="none" stroke="#000000" points="299.4004,-588.0019 178.9766,-588.0019 178.9766,-546.7981 299.4004,-546.7981 299.4004,-588.0019"/>
<text text-anchor="middle" x="239.1885" y="-571.6" font-family="Times,serif" font-size="14.00" fill="#000000"> = cmp(dl_0,0x2d)</text>
<text text-anchor="middle" x="239.1885" y="-554.8" font-family="Times,serif" font-size="14.00" fill="#000000"> = je(0x4005f0)</text>
</g>
<!-- 2&#45;&gt;3 -->
<g id="edge5" class="edge">
<title>2-&gt;3</title>
<path fill="none" stroke="#000000" d="M254.0332,-863.4088C258.1571,-857.8322 262.2048,-851.6171 265.1885,-845.4 272.1008,-830.9973 271.9614,-826.4195 274.1885,-810.6 286.8565,-720.6157 314.6017,-689.8872 279.1885,-606.2 277.7063,-602.6973 275.736,-599.3554 273.4626,-596.2075"/>
<polygon fill="#000000" stroke="#000000" points="275.9752,-593.757 266.8634,-588.3509 270.6151,-598.2592 275.9752,-593.757"/>
<text text-anchor="middle" x="331.4114" y="-704.8" font-family="Times,serif" font-size="14.00" fill="#000000">dl_0 != 0x20</text>
</g>
<!-- 4&#45;&gt;1 -->
<g id="edge9" class="edge">
<title>4-&gt;1</title>
<path fill="none" stroke="#000000" d="M178.9574,-682.4519C175.4531,-693.5583 170.0243,-707.0568 162.1885,-717.4 159.3325,-721.1699 156.1573,-724.8131 152.7751,-728.3084"/>
<polygon fill="#000000" stroke="#000000" points="150.3336,-725.8005 145.5783,-735.2682 155.1999,-730.8324 150.3336,-725.8005"/>
<text text-anchor="middle" x="206.5284" y="-704.8" font-family="Times,serif" font-size="14.00" fill="#000000">dl_0 == 0x9</text>
</g>
<!-- 4&#45;&gt;3 -->
<g id="edge10" class="edge">
<title>4-&gt;3</title>
<path fill="none" stroke="#000000" d="M194.6911,-640.9547C200.1486,-630.4106 207.0601,-617.4883 213.7427,-606.2 215.5624,-603.1261 217.5152,-599.953 219.5003,-596.8072"/>
<polygon fill="#000000" stroke="#000000" points="222.6239,-598.4213 225.0971,-588.1192 216.7392,-594.6304 222.6239,-598.4213"/>
<text text-anchor="middle" x="246.9114" y="-610.4" font-family="Times,serif" font-size="14.00" fill="#000000">dl_0 != 0x9</text>
</g>
<!-- 5 -->
<g id="node6" class="node">
<title>5</title>
<polygon fill="none" stroke="#000000" points="228.1295,-477.2014 82.2475,-477.2014 82.2475,-418.3986 228.1295,-418.3986 228.1295,-477.2014"/>
<text text-anchor="middle" x="155.1885" y="-460.4" font-family="Times,serif" font-size="14.00" fill="#000000">rdi_1 = add(rdi_0,0x1)</text>
<text text-anchor="middle" x="155.1885" y="-443.6" font-family="Times,serif" font-size="14.00" fill="#000000">esi_1 = mov(0xffffffff)</text>
<text text-anchor="middle" x="155.1885" y="-426.8" font-family="Times,serif" font-size="14.00" fill="#000000"> = jmp(0x4005b7)</text>
</g>
<!-- 3&#45;&gt;5 -->
<g id="edge7" class="edge">
<title>3-&gt;5</title>
<path fill="none" stroke="#000000" d="M222.2953,-546.7108C217.7194,-540.9263 212.8369,-534.5841 208.5087,-528.6 198.5705,-514.8595 188.1834,-499.3986 179.2451,-485.7079"/>
<polygon fill="#000000" stroke="#000000" points="181.9774,-483.4885 173.5998,-477.0026 176.1042,-487.2972 181.9774,-483.4885"/>
<text text-anchor="middle" x="247.0284" y="-516" font-family="Times,serif" font-size="14.00" fill="#000000">dl_0 == 0x2d</text>
</g>
<!-- 6 -->
<g id="node7" class="node">
<title>6</title>
<polygon fill="none" stroke="#000000" points="401.8822,-493.8 246.4948,-493.8 246.4948,-401.8 401.8822,-401.8 401.8822,-493.8"/>
<text text-anchor="middle" x="324.1885" y="-477.2" font-family="Times,serif" font-size="14.00" fill="#000000"> = cmp(dl_0,0x2b)</text>
<text text-anchor="middle" x="324.1885" y="-460.4" font-family="Times,serif" font-size="14.00" fill="#000000">esi_1 = mov(0x1)</text>
<text text-anchor="middle" x="324.1885" y="-443.6" font-family="Times,serif" font-size="14.00" fill="#000000">dl_1 = sete()</text>
<text text-anchor="middle" x="324.1885" y="-426.8" font-family="Times,serif" font-size="14.00" fill="#000000">edx_2 = movzx(dl_1)</text>
<text text-anchor="middle" x="324.1885" y="-410" font-family="Times,serif" font-size="14.00" fill="#000000">rdi_1 = add(rdi_0,rdx_2)</text>
</g>
<!-- 3&#45;&gt;6 -->
<g id="edge8" class="edge">
<title>3-&gt;6</title>
<path fill="none" stroke="#000000" d="M267.0515,-546.434C273.1554,-541.045 279.2587,-534.959 284.1885,-528.6 290.2304,-520.8065 295.721,-511.9555 300.5658,-503.0394"/>
<polygon fill="#000000" stroke="#000000" points="303.6858,-504.6256 305.1918,-494.1384 297.4745,-501.3975 303.6858,-504.6256"/>
<text text-anchor="middle" x="331.4114" y="-516" font-family="Times,serif" font-size="14.00" fill="#000000">dl_0 != 0x2d</text>
</g>
<!-- 10 -->
<g id="node8" class="node">
<title>10</title>
<polygon fill="none" stroke="#000000" points="328.2961,-364.8 150.0809,-364.8 150.0809,-272.8 328.2961,-272.8 328.2961,-364.8"/>
<text text-anchor="middle" x="239.1885" y="-348.2" font-family="Times,serif" font-size="14.00" fill="#000000">edx_3 = movsx([rdi_1]_0)</text>
<text text-anchor="middle" x="239.1885" y="-331.4" font-family="Times,serif" font-size="14.00" fill="#000000">eax_1 = xor(eax_0,eax_0)</text>
<text text-anchor="middle" x="239.1885" y="-314.6" font-family="Times,serif" font-size="14.00" fill="#000000">ecx_1 = lea([rdx_3-0x30]_0)</text>
<text text-anchor="middle" x="239.1885" y="-297.8" font-family="Times,serif" font-size="14.00" fill="#000000"> = cmp(cl_1,0x9)</text>
<text text-anchor="middle" x="239.1885" y="-281" font-family="Times,serif" font-size="14.00" fill="#000000"> = ja(0x4005e8)</text>
</g>
<!-- 5&#45;&gt;10 -->
<g id="edge11" class="edge">
<title>5-&gt;10</title>
<path fill="none" stroke="#000000" d="M174.2494,-418.5279C182.9487,-405.1682 193.5421,-388.8999 203.6279,-373.4109"/>
<polygon fill="#000000" stroke="#000000" points="206.6399,-375.1994 209.1637,-364.9095 200.7739,-371.3796 206.6399,-375.1994"/>
</g>
<!-- 6&#45;&gt;10 -->
<g id="edge12" class="edge">
<title>6-&gt;10</title>
<path fill="none" stroke="#000000" d="M293.7416,-401.5924C287.7603,-392.5148 281.4317,-382.9103 275.2859,-373.5832"/>
<polygon fill="#000000" stroke="#000000" points="278.1332,-371.5431 269.7085,-365.1186 272.288,-375.3946 278.1332,-371.5431"/>
</g>
<!-- 8 -->
<g id="node9" class="node">
<title>8</title>
<polygon fill="none" stroke="#000000" points="232.5658,-219.8006 -.1888,-219.8006 -.1888,-94.5994 232.5658,-94.5994 232.5658,-219.8006"/>
<text text-anchor="middle" x="116.1885" y="-203.4" font-family="Times,serif" font-size="14.00" fill="#000000">ecx_1 = lea([rax_0+rax_0*4]_0)</text>
<text text-anchor="middle" x="116.1885" y="-186.6" font-family="Times,serif" font-size="14.00" fill="#000000">rdi_1 = add(rdi_0,0x1)</text>
<text text-anchor="middle" x="116.1885" y="-169.8" font-family="Times,serif" font-size="14.00" fill="#000000">eax_1 = lea([rdx_0+rcx_1*2-0x30]_0)</text>
<text text-anchor="middle" x="116.1885" y="-153" font-family="Times,serif" font-size="14.00" fill="#000000">edx_1 = movsx([rdi_1]_0)</text>
<text text-anchor="middle" x="116.1885" y="-136.2" font-family="Times,serif" font-size="14.00" fill="#000000">ecx_2 = lea([rdx_1-0x30]_0)</text>
<text text-anchor="middle" x="116.1885" y="-119.4" font-family="Times,serif" font-size="14.00" fill="#000000"> = cmp(cl_2,0x9)</text>
<text text-anchor="middle" x="116.1885" y="-102.6" font-family="Times,serif" font-size="14.00" fill="#000000"> = jbe(0x4005c8)</text>
</g>
<!-- 10&#45;&gt;8 -->
<g id="edge16" class="edge">
<title>10-&gt;8</title>
<path fill="none" stroke="#000000" d="M203.9416,-272.4919C193.4597,-258.7205 181.7252,-243.3035 170.3323,-228.3353"/>
<polygon fill="#000000" stroke="#000000" points="172.8899,-225.9166 164.0482,-220.0791 167.3198,-230.1562 172.8899,-225.9166"/>
<text text-anchor="middle" x="223.1357" y="-242.2" font-family="Times,serif" font-size="14.00" fill="#000000">cl_1 &lt;= 0x9</text>
</g>
<!-- 7 -->
<g id="node11" class="node">
<title>7</title>
<polygon fill="none" stroke="#000000" points="390.6701,-175.2 335.7069,-175.2 335.7069,-139.2 390.6701,-139.2 390.6701,-175.2"/>
<text text-anchor="middle" x="363.1885" y="-153" font-family="Times,serif" font-size="14.00" fill="#000000"> = ret()</text>
</g>
<!-- 10&#45;&gt;7 -->
<g id="edge15" class="edge">
<title>10-&gt;7</title>
<path fill="none" stroke="#000000" d="M283.1253,-272.5779C297.5362,-256.482 313.1778,-237.95 326.1885,-220 334.3113,-208.7935 342.2472,-195.6994 348.6731,-184.3763"/>
<polygon fill="#000000" stroke="#000000" points="351.885,-185.8022 353.6868,-175.3617 345.7674,-182.3998 351.885,-185.8022"/>
<text text-anchor="middle" x="340.1884" y="-242.2" font-family="Times,serif" font-size="14.00" fill="#000000">cl_1 &gt; 0x9</text>
</g>
<!-- 8&#45;&gt;8 -->
<g id="edge13" class="edge">
<title>8-&gt;8</title>
<path fill="none" stroke="#000000" d="M232.5962,-170.428C243.4959,-167.7109 250.377,-163.3016 250.377,-157.2 250.377,-153.1958 247.4135,-149.9205 242.2957,-147.3739"/>
<polygon fill="#000000" stroke="#000000" points="243.1911,-143.979 232.5962,-143.972 240.8743,-150.5845 243.1911,-143.979"/>
<text text-anchor="middle" x="284.3242" y="-153" font-family="Times,serif" font-size="14.00" fill="#000000">cl_2 &lt;= 0x9</text>
</g>
<!-- 9 -->
<g id="node10" class="node">
<title>9</title>
<polygon fill="none" stroke="#000000" points="198.9844,-41.4019 33.3926,-41.4019 33.3926,-.1981 198.9844,-.1981 198.9844,-41.4019"/>
<text text-anchor="middle" x="116.1885" y="-25" font-family="Times,serif" font-size="14.00" fill="#000000">eax_1 = imul(eax_0,esi_0)</text>
<text text-anchor="middle" x="116.1885" y="-8.2" font-family="Times,serif" font-size="14.00" fill="#000000"> = ret()</text>
</g>
<!-- 8&#45;&gt;9 -->
<g id="edge14" class="edge">
<title>8-&gt;9</title>
<path fill="none" stroke="#000000" d="M116.1885,-94.589C116.1885,-79.7068 116.1885,-64.4673 116.1885,-51.7306"/>
<polygon fill="#000000" stroke="#000000" points="119.6886,-51.6833 116.1885,-41.6833 112.6886,-51.6833 119.6886,-51.6833"/>
<text text-anchor="middle" x="146.1884" y="-63.8" font-family="Times,serif" font-size="14.00" fill="#000000">cl_2 &gt; 0x9</text>
</g>
</g>
</svg>