<?xml version="1.0" encoding="UTF-8" standalone="no"?><!DOCTYPE svg PUBLIC "-//W3C//DTD SVG 1.1//EN" "http://www.w3.org/Graphics/SVG/1.1/DTD/svg11.dtd"><!-- Generated by graphviz version 2.40.1 (20161225.0304)
 --><!-- Title: G Pages: 1 --><svg xmlns="http://www.w3.org/2000/svg" xmlns:xlink="http://www.w3.org/1999/xlink" width="429pt" height="1024pt" viewBox="0.00 0.00 429.22 1024.20">
<g id="graph0" class="graph" transform="scale(1 1) rotate(0) translate(4 1020.2)">
<title>G</title>
<polygon fill="#ffffff" stroke="transparent" points="-4,4 -4,-1020.2 425.2242,-1020.2 425.2242,4 -4,4"/>
<!-- 0 -->
<g id="node1" class="node">
<title>0</title>
<g id="a_node1"><a xlink:title="0x400580">
<polygon fill="none" stroke="#000000" points="199.3465,-1016.4014 30.5305,-1016.4014 30.5305,-957.5986 199.3465,-957.5986 199.3465,-1016.4014"/>
<text text-anchor="middle" x="114.9385" y="-999.6" font-family="Times,serif" font-size="14.00" fill="#000000">edx_1 =  movzx([rdi_0]_0)</text>
<text text-anchor="middle" x="114.9385" y="-982.8" font-family="Times,serif" font-size="14.00" fill="#000000"> =  cmp(dl_1,0x9)</text>
<text text-anchor="middle" x="114.9385" y="-966" font-family="Times,serif" font-size="14.00" fill="#000000"> =  je(0x400590)</text>
</a>
</g>
</g>
<!-- 1 -->
<g id="node2" class="node">
<title>1</title>
<g id="a_node2"><a xlink:title="0x400590">
<polygon fill="none" stroke="#000000" points="183.3465,-810.7003 14.5305,-810.7003 14.5305,-735.2997 183.3465,-735.2997 183.3465,-810.7003"/>
<text text-anchor="middle" x="98.9385" y="-794" font-family="Times,serif" font-size="14.00" fill="#000000">rdi_1 =  add(rdi_0,0x1)</text>
<text text-anchor="middle" x="98.9385" y="-777.2" font-family="Times,serif" font-size="14.00" fill="#000000">edx_1 =  movzx([rdi_1]_0)</text>
<text text-anchor="middle" x="98.9385" y="-760.4" font-family="Times,serif" font-size="14.00" fill="#000000"> =  cmp(dl_1,0x20)</text>
<text text-anchor="middle" x="98.9385" y="-743.6" font-family="Times,serif" font-size="14.00" fill="#000000"> =  je(0x400590)</text>
</a>
</g>
</g>
<!-- 0&#45;&gt;1 -->
<g id="edge1" class="edge">
<title>0-&gt;1</title>
<path fill="none" stroke="#ff0000" stroke-dasharray="5,2" d="M112.4815,-957.7838C111.1847,-942.1319 109.5906,-922.5179 108.2587,-905 106.1385,-877.1149 103.9273,-845.9032 102.1911,-820.8333"/>
<polygon fill="#ff0000" stroke="#ff0000" points="105.6821,-820.581 101.5019,-810.8456 98.6987,-821.0629 105.6821,-820.581"/>
<text text-anchor="middle" x="143.2784" y="-880" font-family="Times,serif" font-size="14.00" fill="#000000">dl_1 == 0x9</text>
</g>
<!-- 2 -->
<g id="node3" class="node">
<title>2</title>
<g id="a_node3"><a xlink:title="0x400588">
<polygon fill="none" stroke="#000000" points="310.1503,-904.8019 185.7267,-904.8019 185.7267,-863.5981 310.1503,-863.5981 310.1503,-904.8019"/>
<text text-anchor="middle" x="247.9385" y="-888.4" font-family="Times,serif" font-size="14.00" fill="#000000"> =  cmp(dl_0,0x20)</text>
<text text-anchor="middle" x="247.9385" y="-871.6" font-family="Times,serif" font-size="14.00" fill="#000000"> =  jne(0x4005a1)</text>
</a>
</g>
</g>
<!-- 0&#45;&gt;2 -->
<g id="edge2" class="edge">
<title>0-&gt;2</title>
<path fill="none" stroke="#0000ff" stroke-dasharray="5,2" d="M153.051,-957.5416C171.9556,-942.9297 194.6282,-925.4053 213.0697,-911.1512"/>
<polygon fill="#0000ff" stroke="#0000ff" points="215.4448,-913.7391 221.2164,-904.8544 211.1639,-908.2007 215.4448,-913.7391"/>
<text text-anchor="middle" x="230.6614" y="-927.2" font-family="Times,serif" font-size="14.00" fill="#000000">dl_1 != 0x9</text>
</g>
<!-- 1&#45;&gt;1 -->
<g id="edge3" class="edge">
<title>1-&gt;1</title>
<path fill="none" stroke="#ff0000" stroke-dasharray="5,2" d="M183.736,-783.4502C194.3846,-781.6084 201.3925,-778.125 201.3925,-773 201.3925,-769.7168 198.5165,-767.1073 193.6497,-765.1715"/>
<polygon fill="#ff0000" stroke="#ff0000" points="194.2985,-761.7229 183.736,-762.5498 192.5088,-768.4902 194.2985,-761.7229"/>
<text text-anchor="middle" x="239.2324" y="-768.8" font-family="Times,serif" font-size="14.00" fill="#000000">dl_1 == 0x20</text>
</g>
<!-- 4 -->
<g id="node4" class="node">
<title>4</title>
<g id="a_node4"><a xlink:title="0x40059c">
<polygon fill="none" stroke="#000000" points="252.6503,-682.4019 135.2267,-682.4019 135.2267,-641.1981 252.6503,-641.1981 252.6503,-682.4019"/>
<text text-anchor="middle" x="193.9385" y="-666" font-family="Times,serif" font-size="14.00" fill="#000000"> =  cmp(dl_0,0x9)</text>
<text text-anchor="middle" x="193.9385" y="-649.2" font-family="Times,serif" font-size="14.00" fill="#000000"> =  je(0x400590)</text>
</a>
</g>
</g>
<!-- 1&#45;&gt;4 -->
<g id="edge4" class="edge">
<title>1-&gt;4</title>
<path fill="none" stroke="#0000ff" stroke-dasharray="5,2" d="M91.3991,-735.224C90.9686,-723.2785 92.7358,-710.5978 99.4927,-700.6 106.0183,-690.9445 115.4209,-683.6893 125.7924,-678.2385"/>
<polygon fill="#0000ff" stroke="#0000ff" points="127.5222,-681.2938 135.1083,-673.8978 124.5657,-674.9488 127.5222,-681.2938"/>
<text text-anchor="middle" x="136.1614" y="-704.8" font-family="Times,serif" font-size="14.00" fill="#000000">dl_1 != 0x20</text>
</g>
<!-- 2&#45;&gt;1 -->
<g id="edge6" class="edge">
<title>2-&gt;1</title>
<path fill="none" stroke="#0000ff" stroke-dasharray="5,2" d="M220.2619,-863.5447C202.6502,-850.401 179.1676,-832.8757 157.5553,-816.7462"/>
<polygon fill="#0000ff" stroke="#0000ff" points="159.4874,-813.8209 149.3799,-810.6448 155.3007,-819.4309 159.4874,-813.8209"/>
<text text-anchor="middle" x="233.7784" y="-832.8" font-family="Times,serif" font-size="14.00" fill="#000000">dl_0 == 0x20</text>
</g>
<!-- 3 -->
<g id="node5" class="node">
<title>3</title>
<g id="a_node5"><a xlink:title="0x4005a1">
<polygon fill="none" stroke="#000000" points="311.1503,-588.0019 186.7267,-588.0019 186.7267,-546.7981 311.1503,-546.7981 311.1503,-588.0019"/>
<text text-anchor="middle" x="248.9385" y="-571.6" font-family="Times,serif" font-size="14.00" fill="#000000"> =  cmp(dl_0,0x2d)</text>
<text text-anchor="middle" x="248.9385" y="-554.8" font-family="Times,serif" font-size="14.00" fill="#000000"> =  je(0x4005f0)</text>
</a>
</g>
</g>
<!-- 2&#45;&gt;3 -->
<g id="edge5" class="edge">
<title>2-&gt;3</title>
<path fill="none" stroke="#ff0000" stroke-dasharray="5,2" d="M265.1471,-863.3374C269.1292,-857.7622 273.0427,-851.5655 275.9385,-845.4 282.73,-830.9399 282.7114,-826.4195 284.9385,-810.6 297.6065,-720.6157 325.8672,-689.6672 289.9385,-606.2 288.3704,-602.5572 286.2736,-599.0965 283.8543,-595.8514"/>
<polygon fill="#ff0000" stroke="#ff0000" points="286.4765,-593.5328 277.2938,-588.2479 281.1766,-598.1057 286.4765,-593.5328"/>
<text text-anchor="middle" x="342.1614" y="-704.8" font-family="Times,serif" font-size="14.00" fill="#000000">dl_0 != 0x20</text>
</g>
<!-- 4&#45;&gt;1 -->
<g id="edge9" class="edge">
<title>4-&gt;1</title>
<path fill="none" stroke="#ff0000" stroke-dasharray="5,2" d="M188.7074,-682.4519C185.2031,-693.5583 179.7743,-707.0568 171.9385,-717.4 169.0825,-721.1699 165.9073,-724.8131 162.5251,-728.3084"/>
<polygon fill="#ff0000" stroke="#ff0000" points="160.0836,-725.8005 155.3283,-735.2682 164.9499,-730.8324 160.0836,-725.8005"/>
<text text-anchor="middle" x="216.2784" y="-704.8" font-family="Times,serif" font-size="14.00" fill="#000000">dl_0 == 0x9</text>
</g>
<!-- 4&#45;&gt;3 -->
<g id="edge10" class="edge">
<title>4-&gt;3</title>
<path fill="none" stroke="#0000ff" stroke-dasharray="5,2" d="M204.966,-641.0392C210.6513,-630.5166 217.7842,-617.5881 224.4927,-606.2 226.2846,-603.1581 228.1893,-600.0058 230.1138,-596.8727"/>
<polygon fill="#0000ff" stroke="#0000ff" points="233.1986,-598.5401 235.5131,-588.2011 227.2563,-594.8401 233.1986,-598.5401"/>
<text text-anchor="middle" x="257.6614" y="-610.4" font-family="Times,serif" font-size="14.00" fill="#000000">dl_0 != 0x9</text>
</g>
<!-- 5 -->
<g id="node6" class="node">
<title>5</title>
<g id="a_node6"><a xlink:title="0x4005f0">
<polygon fill="none" stroke="#000000" points="238.8802,-477.2014 88.9968,-477.2014 88.9968,-418.3986 238.8802,-418.3986 238.8802,-477.2014"/>
<text text-anchor="middle" x="163.9385" y="-460.4" font-family="Times,serif" font-size="14.00" fill="#000000">rdi_1 =  add(rdi_0,0x1)</text>
<text text-anchor="middle" x="163.9385" y="-443.6" font-family="Times,serif" font-size="14.00" fill="#000000">esi_1 =  mov(0xffffffff)</text>
<text text-anchor="middle" x="163.9385" y="-426.8" font-family="Times,serif" font-size="14.00" fill="#000000"> =  jmp(0x4005b7)</text>
</a>
</g>
</g>
<!-- 3&#45;&gt;5 -->
<g id="edge7" class="edge">
<title>3-&gt;5</title>
<path fill="none" stroke="#ff0000" stroke-dasharray="5,2" d="M232.7154,-546.6097C228.2891,-540.8249 223.5361,-534.5077 219.2587,-528.6 209.2808,-514.8191 198.6499,-499.4646 189.4014,-485.8728"/>
<polygon fill="#ff0000" stroke="#ff0000" points="192.0516,-483.5446 183.5441,-477.23 186.2569,-487.4716 192.0516,-483.5446"/>
<text text-anchor="middle" x="257.7784" y="-516" font-family="Times,serif" font-size="14.00" fill="#000000">dl_0 == 0x2d</text>
</g>
<!-- 6 -->
<g id="node7" class="node">
<title>6</title>
<g id="a_node7"><a xlink:title="0x4005a6">
<polygon fill="none" stroke="#000000" points="415.632,-493.8 256.245,-493.8 256.245,-401.8 415.632,-401.8 415.632,-493.8"/>
<text text-anchor="middle" x="335.9385" y="-477.2" font-family="Times,serif" font-size="14.00" fill="#000000"> =  cmp(dl_0,0x2b)</text>
<text text-anchor="middle" x="335.9385" y="-460.4" font-family="Times,serif" font-size="14.00" fill="#000000">esi_1 =  mov(0x1)</text>
<text text-anchor="middle" x="335.9385" y="-443.6" font-family="Times,serif" font-size="14.00" fill="#000000">dl_1 =  sete()</text>
<text text-anchor="middle" x="335.9385" y="-426.8" font-family="Times,serif" font-size="14.00" fill="#000000">edx_2 =  movzx(dl_1)</text>
<text text-anchor="middle" x="335.9385" y="-410" font-family="Times,serif" font-size="14.00" fill="#000000">rdi_1 =  add(rdi_0,rdx_2)</text>
</a>
</g>
</g>
<!-- 3&#45;&gt;6 -->
<g id="edge8" class="edge">
<title>3-&gt;6</title>
<path fill="none" stroke="#0000ff" stroke-dasharray="5,2" d="M277.3915,-546.4765C283.6323,-541.0857 289.879,-534.9883 294.9385,-528.6 301.0913,-520.8312 306.6988,-511.9927 311.6568,-503.0815"/>
<polygon fill="#0000ff" stroke="#0000ff" points="314.7843,-504.6547 316.3944,-494.1829 308.6054,-501.365 314.7843,-504.6547"/>
<text text-anchor="middle" x="342.1614" y="-516" font-family="Times,serif" font-size="14.00" fill="#000000">dl_0 != 0x2d</text>
</g>
<!-- 10 -->
<g id="node8" class="node">
<title>10</title>
<g id="a_node8"><a xlink:title="0x4005b7">
<polygon fill="none" stroke="#000000" points="340.0457,-364.8 157.8313,-364.8 157.8313,-272.8 340.0457,-272.8 340.0457,-364.8"/>
<text text-anchor="middle" x="248.9385" y="-348.2" font-family="Times,serif" font-size="14.00" fill="#000000">edx_3 =  movsx([rdi_1]_0)</text>
<text text-anchor="middle" x="248.9385" y="-331.4" font-family="Times,serif" font-size="14.00" fill="#000000">eax_1 =  xor(eax_0,eax_0)</text>
<text text-anchor="middle" x="248.9385" y="-314.6" font-family="Times,serif" font-size="14.00" fill="#000000">ecx_1 =  lea([rdx_3-0x30]_0)</text>
<text text-anchor="middle" x="248.9385" y="-297.8" font-family="Times,serif" font-size="14.00" fill="#000000"> =  cmp(cl_1,0x9)</text>
<text text-anchor="middle" x="248.9385" y="-281" font-family="Times,serif" font-size="14.00" fill="#000000"> =  ja(0x4005e8)</text>
</a>
</g>
</g>
<!-- 5&#45;&gt;10 -->
<g id="edge11" class="edge">
<title>5-&gt;10</title>
<path fill="none" stroke="#000000" stroke-width="2" d="M183.2263,-418.5279C192.0292,-405.1682 202.7487,-388.8999 212.9546,-373.4109"/>
<polygon fill="#000000" stroke="#000000" stroke-width="2" points="215.9767,-375.1855 218.5563,-364.9095 210.1315,-371.334 215.9767,-375.1855"/>
</g>
<!-- 6&#45;&gt;10 -->
<g id="edge12" class="edge">
<title>6-&gt;10</title>
<path fill="none" stroke="#000000" stroke-width="2" d="M304.7752,-401.5924C298.6532,-392.5148 292.1757,-382.9103 285.8853,-373.5832"/>
<polygon fill="#000000" stroke="#000000" stroke-width="2" points="288.6698,-371.4523 280.1766,-365.1186 282.8663,-375.3663 288.6698,-371.4523"/>
</g>
<!-- 8 -->
<g id="node9" class="node">
<title>8</title>
<g id="a_node9"><a xlink:title="0x4005c8">
<polygon fill="none" stroke="#000000" points="235.8155,-219.8006 .0615,-219.8006 .0615,-94.5994 235.8155,-94.5994 235.8155,-219.8006"/>
<text text-anchor="middle" x="117.9385" y="-203.4" font-family="Times,serif" font-size="14.00" fill="#000000">ecx_1 =  lea([rax_0+rax_0*4]_0)</text>
<text text-anchor="middle" x="117.9385" y="-186.6" font-family="Times,serif" font-size="14.00" fill="#000000">rdi_1 =  add(rdi_0,0x1)</text>
<text text-anchor="middle" x="117.9385" y="-169.8" font-family="Times,serif" font-size="14.00" fill="#000000">eax_1 =  lea([rdx_0+rcx_1*2-0x30]_0)</text>
<text text-anchor="middle" x="117.9385" y="-153" font-family="Times,serif" font-size="14.00" fill="#000000">edx_1 =  movsx([rdi_1]_0)</text>
<text text-anchor="middle" x="117.9385" y="-136.2" font-family="Times,serif" font-size="14.00" fill="#000000">ecx_2 =  lea([rdx_1-0x30]_0)</text>
<text text-anchor="middle" x="117.9385" y="-119.4" font-family="Times,serif" font-size="14.00" fill="#000000"> =  cmp(cl_2,0x9)</text>
<text text-anchor="middle" x="117.9385" y="-102.6" font-family="Times,serif" font-size="14.00" fill="#000000"> =  jbe(0x4005c8)</text>
</a>
</g>
</g>
<!-- 10&#45;&gt;8 -->
<g id="edge16" class="edge">
<title>10-&gt;8</title>
<path fill="none" stroke="#0000ff" stroke-dasharray="5,2" d="M211.3992,-272.4919C200.1321,-258.593 187.5062,-243.0178 175.2669,-227.9196"/>
<polygon fill="#0000ff" stroke="#0000ff" points="177.9272,-225.6433 168.9111,-220.0791 172.4894,-230.0514 177.9272,-225.6433"/>
<text text-anchor="middle" x="229.8857" y="-242.2" font-family="Times,serif" font-size="14.00" fill="#000000">cl_1 &lt;= 0x9</text>
</g>
<!-- 7 -->
<g id="node11" class="node">
<title>7</title>
<g id="a_node11"><a xlink:title="0x4005e8">
<polygon fill="none" stroke="#000000" points="421.011,-175.2 338.866,-175.2 338.866,-139.2 421.011,-139.2 421.011,-175.2"/>
<text text-anchor="middle" x="379.9385" y="-153" font-family="Times,serif" font-size="14.00" fill="#000000"> = repz ret()</text>
</a>
</g>
</g>
<!-- 10&#45;&gt;7 -->
<g id="edge15" class="edge">
<title>10-&gt;7</title>
<path fill="none" stroke="#ff0000" stroke-dasharray="5,2" d="M286.9869,-272.6692C300.5903,-256.1028 315.9991,-237.253 329.9385,-220 339.57,-208.079 350.1531,-194.8114 359.093,-183.5539"/>
<polygon fill="#ff0000" stroke="#ff0000" points="362.0941,-185.4024 365.5661,-175.3926 356.6097,-181.0525 362.0941,-185.4024"/>
<text text-anchor="middle" x="343.9384" y="-242.2" font-family="Times,serif" font-size="14.00" fill="#000000">cl_1 &gt; 0x9</text>
</g>
<!-- 8&#45;&gt;8 -->
<g id="edge13" class="edge">
<title>8-&gt;8</title>
<path fill="none" stroke="#ff0000" stroke-dasharray="5,2" d="M235.8643,-170.428C246.9061,-167.7109 253.877,-163.3016 253.877,-157.2 253.877,-153.1958 250.8749,-149.9205 245.6903,-147.3739"/>
<polygon fill="#ff0000" stroke="#ff0000" points="246.4591,-143.9363 235.8643,-143.972 244.1689,-150.5511 246.4591,-143.9363"/>
<text text-anchor="middle" x="287.8242" y="-153" font-family="Times,serif" font-size="14.00" fill="#000000">cl_2 &lt;= 0x9</text>
</g>
<!-- 9 -->
<g id="node10" class="node">
<title>9</title>
<g id="a_node10"><a xlink:title="0x4005de">
<polygon fill="none" stroke="#000000" points="202.7346,-41.4019 33.1424,-41.4019 33.1424,-.1981 202.7346,-.1981 202.7346,-41.4019"/>
<text text-anchor="middle" x="117.9385" y="-25" font-family="Times,serif" font-size="14.00" fill="#000000">eax_1 =  imul(eax_0,esi_0)</text>
<text text-anchor="middle" x="117.9385" y="-8.2" font-family="Times,serif" font-size="14.00" fill="#000000"> =  ret()</text>
</a>
</g>
</g>
<!-- 8&#45;&gt;9 -->
<g id="edge14" class="edge">
<title>8-&gt;9</title>
<path fill="none" stroke="#0000ff" stroke-dasharray="5,2" d="M117.9385,-94.589C117.9385,-79.7068 117.9385,-64.4673 117.9385,-51.7306"/>
<polygon fill="#0000ff" stroke="#0000ff" points="121.4386,-51.6833 117.9385,-41.6833 114.4386,-51.6833 121.4386,-51.6833"/>
<text text-anchor="middle" x="147.9384" y="-63.8" font-family="Times,serif" font-size="14.00" fill="#000000">cl_2 &gt; 0x9</text>
</g>
</g>
</svg>